# xmcd
#
# Track frame offsets: 
#        150
#        19584
#        51634
#        77129
#        113590
#        126838
#        137203
#        158907
#        172975
#        188640
#        205921
#        218702
#        232615
#        248557
#        261649
#        271234
#
# Disc length: 3763 seconds
#
# Revision: 0
# Processed by: cddbd v1.5.2PL0 Copyright (c) Steve Scherf et al.
# Submitted via: ExactAudioCopy v0.95b3
#
DISCID=db0eb110
DTITLE=Animals  - Animalike  FLAC
DYEAR=1900
DGENRE=
TTITLE0=San Franciscan Nights
TTITLE1=Hey Gyp
TTITLE2=Gin House Blues
TTITLE3=Paint It Black
TTITLE4=I'm Crying
TTITLE5=Don't Let Me Be Misunderstood
TTITLE6=Talkin' 'Bout You
TTITLE7=Rosie
TTITLE8=We Gotta Get out Of This Place
TTITLE9=See See Rider
TTITLE10=A Love Like Yours
TTITLE11=Shake, Rattle and Roll
TTITLE12=Hey Gyp
TTITLE13=Inside - Looking Out
TTITLE14=We Gotta Get out Of This Place
TTITLE15=Club A-Gogo
EXTD=
EXTT0=
EXTT1=
EXTT2=
EXTT3=
EXTT4=
EXTT5=
EXTT6=
EXTT7=
EXTT8=
EXTT9=
EXTT10=
EXTT11=
EXTT12=
EXTT13=
EXTT14=
EXTT15=
PLAYORDER=
